<?xml version="1.0" standalone="no"?>
<!DOCTYPE svg PUBLIC "-//W3C//DTD SVG 20010904//EN"
 "http://www.w3.org/TR/2001/REC-SVG-20010904/DTD/svg10.dtd">
<svg version="1.0" xmlns="http://www.w3.org/2000/svg"
 width="161.000000pt" height="161.000000pt" viewBox="0 0 161.000000 161.000000"
 preserveAspectRatio="xMidYMid meet">
<metadata>
Created by potrace 1.14, written by Peter Selinger 2001-2017
</metadata>
<g transform="translate(0.000000,161.000000) scale(0.100000,-0.100000)"
fill="#000000" stroke="none">
<path d="M650 1595 c-168 -35 -285 -98 -413 -223 -149 -145 -230 -337 -231
-547 -1 -105 7 -195 18 -213 3 -5 7 -20 10 -35 16 -88 114 -253 203 -340 122
-119 231 -178 414 -224 53 -13 253 -10 308 5 31 8 61 15 66 16 32 6 97 33 145
59 153 83 270 203 343 352 67 136 82 207 81 375 -2 269 -129 504 -356 656 -56
38 -208 110 -208 99 0 -1 -21 4 -47 12 -66 20 -252 24 -333 8z"/>
</g>
</svg>
